<svg width="40" height="37" viewBox="0 0 40 37" fill="none" xmlns="http://www.w3.org/2000/svg">
<path d="M39.1596 12.3468L37.5166 21.5585C37.314 22.576 36.4844 23.1948 35.5277 23.2064H11.5742L11.0986 25.8262H33.928C35.1301 25.9155 35.9455 26.7477 35.9601 27.8122C35.8727 28.9845 35.0212 29.7836 33.928 29.7982H8.67733C7.31171 29.6781 6.4974 28.6143 6.64517 27.4319L7.72609 21.6851L6.08307 5.54356L1.41346 4.10697C0.272325 3.66418 -0.193419 2.65532 0.0730986 1.61391C0.516249 0.528561 1.57811 0.0326801 2.6241 0.303993L8.59084 2.16324C9.39467 2.45771 9.85709 3.10075 9.97443 3.85346L10.3203 7.06487L37.3869 10.0227C38.6305 10.286 39.3057 11.2487 39.1596 12.3468V12.3468ZM14.8644 33.9682C14.8644 35.6426 13.4755 37 11.7621 37C10.0487 37 8.65983 35.6426 8.65983 33.9682C8.65983 32.2937 10.0488 30.9363 11.7621 30.9363C13.4754 30.9364 14.8644 32.2938 14.8644 33.9682ZM33.3848 33.9682C33.3848 35.6426 31.9959 37 30.2825 37C28.5692 37 27.1802 35.6426 27.1802 33.9682C27.1802 32.2937 28.5692 30.9363 30.2825 30.9363C31.9959 30.9364 33.3848 32.2938 33.3848 33.9682Z" fill="white"/>
</svg>
