<svg width="58" height="37" viewBox="0 0 58 37" fill="none" xmlns="http://www.w3.org/2000/svg">
<path d="M0 3.0624C0 1.37042 1.37042 0 3.0624 0H54.3576C56.0496 0 57.42 1.37042 57.42 3.0624V32.9974C57.42 34.6893 56.0496 36.0598 54.3576 36.0598H3.0624C1.37042 36.0598 0 34.6893 0 32.9974V3.0624ZM11.8285 13.1377C12.3415 12.9693 12.8927 12.8697 13.4669 12.8697C15.9628 12.8697 18.0452 14.6459 18.5199 16.9963L22.0569 16.2767C21.2454 12.2726 17.7083 9.26376 13.4669 9.26376C12.4946 9.26376 11.5606 9.42454 10.6878 9.71546L11.8285 13.1377ZM7.656 24.5987L10.0447 21.8962C8.93768 20.9163 8.30476 19.5082 8.30676 18.0299C8.30676 16.491 8.98049 15.1129 10.0447 14.1713L7.656 11.4687C5.84153 13.0764 4.70078 15.4192 4.70078 18.0299C4.70078 20.6406 5.84153 22.991 7.656 24.5987ZM18.5122 19.0634C18.0299 21.4138 15.9551 23.1824 13.4592 23.1824C12.885 23.1824 12.3338 23.0905 11.8209 22.9144L10.6725 26.3366C11.5452 26.6276 12.4793 26.7883 13.4516 26.7883C17.693 26.7883 21.2224 23.7795 22.0416 19.7831L18.5122 19.0634ZM33.8242 21.4827C33.2424 22.0493 32.4461 22.3938 31.5733 22.3861C30.9762 22.3785 30.4173 22.1947 29.9503 21.8962L28.7789 23.7642C29.5828 24.2695 30.5245 24.5681 31.5427 24.5834C33.028 24.6064 34.3754 24.0245 35.3631 23.0599L33.8242 21.4827ZM31.7035 13.888C28.7559 13.842 26.3213 16.2001 26.2754 19.1553C26.2601 20.2654 26.5816 21.299 27.1405 22.1565L36.8254 18.0146C36.2818 15.6795 34.207 13.9263 31.7035 13.888ZM28.4956 19.5687C28.4803 19.4462 28.4727 19.3161 28.4803 19.1859C28.5109 17.448 29.9426 16.0546 31.6805 16.0853C32.6299 16.1006 33.4644 16.5293 34.0386 17.203L28.4956 19.5687ZM39.8648 11.4763H37.8206V21.8349C37.8206 22.3938 37.9661 22.8072 38.1652 23.1135C38.3719 23.412 38.6398 23.6724 39.0379 23.8484L40.8065 24.5834L41.6563 22.5469L39.8648 21.8043V11.4763ZM46.3265 16.246C46.6404 16.1388 46.9772 16.0853 47.3217 16.0853C48.8453 16.0853 50.1162 17.1648 50.4071 18.6041L52.5661 18.1677C52.0685 15.7254 49.9095 13.888 47.3217 13.888C46.7322 13.888 46.158 13.9875 45.6298 14.1636L46.3265 16.246ZM43.7847 23.2436L45.247 21.5976C44.5962 21.0234 44.1828 20.1812 44.1828 19.2395C44.1828 18.2978 44.5962 17.4633 45.247 16.8815L43.7847 15.2354C42.6745 16.2154 41.9778 17.6471 41.9778 19.2395C41.9778 20.832 42.6745 22.2637 43.7847 23.2436ZM50.4071 19.8673C50.1162 21.299 48.8453 22.3861 47.3217 22.3861C46.9696 22.3861 46.6404 22.3326 46.3265 22.2254L45.6298 24.3155C46.1657 24.4915 46.7322 24.5911 47.3294 24.5911C49.9171 24.5911 52.0761 22.7536 52.5738 20.3114L50.4071 19.8673Z" fill="#94979D"/>
</svg>
