<svg width="20" height="20" viewBox="0 0 20 20" fill="none" xmlns="http://www.w3.org/2000/svg">
<path fill-rule="evenodd" clip-rule="evenodd" d="M12.2183 12.2183C14.2284 10.2082 14.2284 6.94913 12.2183 4.93903C10.2082 2.92893 6.94913 2.92893 4.93903 4.93903C2.92893 6.94913 2.92893 10.2082 4.93903 12.2183C6.94913 14.2284 10.2082 14.2284 12.2183 12.2183ZM13.3101 15.7365C9.97925 17.9433 5.44731 17.5793 2.51263 14.6447C-0.837542 11.2945 -0.837542 5.8628 2.51263 2.51263C5.8628 -0.837542 11.2945 -0.837542 14.6447 2.51263C17.5793 5.44731 17.9433 9.97925 15.7365 13.3101L19.4975 17.0711C20.1675 17.7411 20.1675 18.8274 19.4975 19.4975C18.8274 20.1675 17.7411 20.1675 17.0711 19.4975L13.3101 15.7365Z" fill="#2FC18C"/>
</svg>
