<svg width="58" height="37" viewBox="0 0 58 37" fill="none" xmlns="http://www.w3.org/2000/svg">
<path d="M0 3.06277C0 1.37125 1.37152 0 3.06178 0H54.3582C56.0492 0 57.42 1.37092 57.42 3.06277V32.997C57.42 34.6885 56.0485 36.0598 54.3582 36.0598H3.06178C1.37081 36.0598 0 34.6888 0 32.997L0 3.06277ZM40.1567 10.9242C39.3473 10.6205 38.0791 10.2947 36.4953 10.2947C32.4588 10.2947 29.6154 12.3274 29.5912 15.2408C29.5684 17.3943 31.6211 18.5957 33.1707 19.3126C34.7607 20.0472 35.2953 20.5157 35.2878 21.1717C35.2777 22.1763 34.0179 22.6353 32.8437 22.6353C31.2086 22.6353 30.34 22.4082 28.9984 21.8486L28.472 21.6103L27.8987 24.9655C28.8528 25.3838 30.6172 25.7463 32.4492 25.7651C36.7434 25.7651 39.5311 23.7556 39.5628 20.6446C39.5782 18.9397 38.4898 17.6421 36.133 16.5725C34.7051 15.8792 33.8306 15.4165 33.8399 14.7145C33.8399 14.0915 34.58 13.4254 36.1793 13.4254C37.5152 13.4046 38.4828 13.6959 39.2368 13.9996L39.6029 14.1725L40.1567 10.9242ZM50.6321 10.5695H47.4755C46.4976 10.5695 45.7658 10.8363 45.3363 11.8123L39.2693 25.5474H43.5591C43.5591 25.5474 44.2605 23.7006 44.4192 23.2952C44.8879 23.2952 49.0552 23.3016 49.651 23.3016C49.7731 23.8263 50.148 25.5474 50.148 25.5474H53.9386L50.6321 10.5695ZM45.5947 20.2296C45.9326 19.3661 47.2223 16.04 47.2223 16.04C47.1982 16.0799 47.5577 15.1723 47.764 14.6096L48.0401 15.9018C48.0401 15.9018 48.8223 19.4794 48.9858 20.2296H45.5947V20.2296ZM21.2569 25.5427H25.3403L27.8962 10.5551H23.811L21.2569 25.5427ZM13.4048 18.7087L11.9726 11.8221C11.7253 10.8731 11.0081 10.5899 10.1208 10.5568H3.53351L3.48137 10.8686C5.08377 11.2565 6.51667 11.8163 7.77243 12.5125L11.4043 25.5297L15.7265 25.5248L22.1579 10.5661H17.8306L13.8311 20.7865L13.405 18.7095C13.4049 18.7092 13.4049 18.709 13.4048 18.7087V18.7087Z" fill="#94979D"/>
</svg>
